<mxfile host="app.diagrams.net" modified="2023-05-11T17:38:26.971Z" agent="Mozilla/5.0 (Windows NT 10.0; Win64; x64) AppleWebKit/537.36 (KHTML, like Gecko) Chrome/113.0.0.0 Safari/537.36" etag="ww1HakwmgW3EI-kMmLk8" version="21.2.9" type="github">
  <diagram name="Page-1" id="H9VZvcb2wJK6X1MnPHUd">
    <mxGraphModel dx="1434" dy="804" grid="1" gridSize="10" guides="1" tooltips="1" connect="1" arrows="1" fold="1" page="1" pageScale="1" pageWidth="850" pageHeight="1100" math="0" shadow="0">
      <root>
        <mxCell id="0" />
        <mxCell id="1" parent="0" />
        <mxCell id="BmYQlpxGfJ4uTeWEvMpN-4" value="Region" style="points=[[0,0],[0.25,0],[0.5,0],[0.75,0],[1,0],[1,0.25],[1,0.5],[1,0.75],[1,1],[0.75,1],[0.5,1],[0.25,1],[0,1],[0,0.75],[0,0.5],[0,0.25]];outlineConnect=0;gradientColor=none;html=1;whiteSpace=wrap;fontSize=12;fontStyle=0;container=1;pointerEvents=0;collapsible=0;recursiveResize=0;shape=mxgraph.aws4.group;grIcon=mxgraph.aws4.group_region;strokeColor=#147EBA;fillColor=none;verticalAlign=top;align=left;spacingLeft=30;fontColor=#147EBA;dashed=1;" vertex="1" parent="1">
          <mxGeometry x="30" y="20" width="780" height="850" as="geometry" />
        </mxCell>
        <mxCell id="BmYQlpxGfJ4uTeWEvMpN-5" value="" style="html=1;align=center;verticalAlign=top;rounded=1;absoluteArcSize=1;arcSize=20;dashed=1;whiteSpace=wrap;" vertex="1" parent="BmYQlpxGfJ4uTeWEvMpN-4">
          <mxGeometry x="180" y="40" width="380" height="60" as="geometry" />
        </mxCell>
        <mxCell id="BmYQlpxGfJ4uTeWEvMpN-6" value="" style="sketch=0;outlineConnect=0;fontColor=#232F3E;gradientColor=none;fillColor=#3F8624;strokeColor=none;dashed=0;verticalLabelPosition=bottom;verticalAlign=top;align=center;html=1;fontSize=12;fontStyle=0;aspect=fixed;pointerEvents=1;shape=mxgraph.aws4.bucket;" vertex="1" parent="BmYQlpxGfJ4uTeWEvMpN-4">
          <mxGeometry x="180" y="46" width="46.15" height="48" as="geometry" />
        </mxCell>
        <mxCell id="BmYQlpxGfJ4uTeWEvMpN-10" value="" style="sketch=0;outlineConnect=0;fontColor=#232F3E;gradientColor=none;fillColor=#4D27AA;strokeColor=none;dashed=0;verticalLabelPosition=bottom;verticalAlign=top;align=center;html=1;fontSize=12;fontStyle=0;aspect=fixed;pointerEvents=1;shape=mxgraph.aws4.application_load_balancer;" vertex="1" parent="BmYQlpxGfJ4uTeWEvMpN-4">
          <mxGeometry x="460" y="31" width="78" height="78" as="geometry" />
        </mxCell>
        <mxCell id="BmYQlpxGfJ4uTeWEvMpN-11" value="VPC" style="points=[[0,0],[0.25,0],[0.5,0],[0.75,0],[1,0],[1,0.25],[1,0.5],[1,0.75],[1,1],[0.75,1],[0.5,1],[0.25,1],[0,1],[0,0.75],[0,0.5],[0,0.25]];outlineConnect=0;gradientColor=none;html=1;whiteSpace=wrap;fontSize=12;fontStyle=0;container=1;pointerEvents=0;collapsible=0;recursiveResize=0;shape=mxgraph.aws4.group;grIcon=mxgraph.aws4.group_vpc;strokeColor=#248814;fillColor=none;verticalAlign=top;align=left;spacingLeft=30;fontColor=#AAB7B8;dashed=0;" vertex="1" parent="BmYQlpxGfJ4uTeWEvMpN-4">
          <mxGeometry x="40" y="190" width="610" height="430" as="geometry" />
        </mxCell>
        <mxCell id="BmYQlpxGfJ4uTeWEvMpN-13" value="Availability Zone" style="text;html=1;strokeColor=none;fillColor=none;align=center;verticalAlign=middle;whiteSpace=wrap;rounded=0;" vertex="1" parent="BmYQlpxGfJ4uTeWEvMpN-11">
          <mxGeometry x="90" y="-30" width="170" height="30" as="geometry" />
        </mxCell>
        <mxCell id="BmYQlpxGfJ4uTeWEvMpN-17" value="Public subnet" style="points=[[0,0],[0.25,0],[0.5,0],[0.75,0],[1,0],[1,0.25],[1,0.5],[1,0.75],[1,1],[0.75,1],[0.5,1],[0.25,1],[0,1],[0,0.75],[0,0.5],[0,0.25]];outlineConnect=0;gradientColor=none;html=1;whiteSpace=wrap;fontSize=12;fontStyle=0;container=1;pointerEvents=0;collapsible=0;recursiveResize=0;shape=mxgraph.aws4.group;grIcon=mxgraph.aws4.group_security_group;grStroke=0;strokeColor=#248814;fillColor=#E9F3E6;verticalAlign=top;align=left;spacingLeft=30;fontColor=#248814;dashed=0;" vertex="1" parent="BmYQlpxGfJ4uTeWEvMpN-11">
          <mxGeometry x="50" y="100" width="130" height="150" as="geometry" />
        </mxCell>
        <mxCell id="BmYQlpxGfJ4uTeWEvMpN-22" value="NAT gateway" style="sketch=0;outlineConnect=0;fontColor=#232F3E;gradientColor=none;strokeColor=#232F3E;fillColor=#ffffff;dashed=0;verticalLabelPosition=bottom;verticalAlign=top;align=center;html=1;fontSize=12;fontStyle=0;aspect=fixed;shape=mxgraph.aws4.resourceIcon;resIcon=mxgraph.aws4.nat_gateway;" vertex="1" parent="BmYQlpxGfJ4uTeWEvMpN-17">
          <mxGeometry x="60" y="20" width="60" height="60" as="geometry" />
        </mxCell>
        <mxCell id="BmYQlpxGfJ4uTeWEvMpN-19" style="edgeStyle=orthogonalEdgeStyle;rounded=0;orthogonalLoop=1;jettySize=auto;html=1;exitX=0.5;exitY=1;exitDx=0;exitDy=0;" edge="1" parent="BmYQlpxGfJ4uTeWEvMpN-11" source="BmYQlpxGfJ4uTeWEvMpN-17" target="BmYQlpxGfJ4uTeWEvMpN-17">
          <mxGeometry relative="1" as="geometry" />
        </mxCell>
        <mxCell id="BmYQlpxGfJ4uTeWEvMpN-21" value="Private subnet" style="points=[[0,0],[0.25,0],[0.5,0],[0.75,0],[1,0],[1,0.25],[1,0.5],[1,0.75],[1,1],[0.75,1],[0.5,1],[0.25,1],[0,1],[0,0.75],[0,0.5],[0,0.25]];outlineConnect=0;gradientColor=none;html=1;whiteSpace=wrap;fontSize=12;fontStyle=0;container=1;pointerEvents=0;collapsible=0;recursiveResize=0;shape=mxgraph.aws4.group;grIcon=mxgraph.aws4.group_security_group;grStroke=0;strokeColor=#147EBA;fillColor=#E6F2F8;verticalAlign=top;align=left;spacingLeft=30;fontColor=#147EBA;dashed=0;" vertex="1" parent="BmYQlpxGfJ4uTeWEvMpN-11">
          <mxGeometry x="370" y="100" width="150" height="150" as="geometry" />
        </mxCell>
        <mxCell id="BmYQlpxGfJ4uTeWEvMpN-23" value="NAT gateway" style="sketch=0;outlineConnect=0;fontColor=#232F3E;gradientColor=none;strokeColor=#232F3E;fillColor=#ffffff;dashed=0;verticalLabelPosition=bottom;verticalAlign=top;align=center;html=1;fontSize=12;fontStyle=0;aspect=fixed;shape=mxgraph.aws4.resourceIcon;resIcon=mxgraph.aws4.nat_gateway;" vertex="1" parent="BmYQlpxGfJ4uTeWEvMpN-21">
          <mxGeometry x="80" y="20" width="60" height="60" as="geometry" />
        </mxCell>
        <mxCell id="BmYQlpxGfJ4uTeWEvMpN-26" value="" style="sketch=0;outlineConnect=0;fontColor=#232F3E;gradientColor=none;fillColor=#4D27AA;strokeColor=none;dashed=0;verticalLabelPosition=bottom;verticalAlign=top;align=center;html=1;fontSize=12;fontStyle=0;aspect=fixed;pointerEvents=1;shape=mxgraph.aws4.internet_gateway;" vertex="1" parent="BmYQlpxGfJ4uTeWEvMpN-11">
          <mxGeometry x="277" y="120" width="78" height="78" as="geometry" />
        </mxCell>
        <mxCell id="BmYQlpxGfJ4uTeWEvMpN-12" value="" style="whiteSpace=wrap;html=1;aspect=fixed;dashed=1;" vertex="1" parent="BmYQlpxGfJ4uTeWEvMpN-4">
          <mxGeometry x="270" y="460" width="390" height="390" as="geometry" />
        </mxCell>
        <mxCell id="BmYQlpxGfJ4uTeWEvMpN-25" value="" style="sketch=0;outlineConnect=0;fontColor=#232F3E;gradientColor=none;strokeColor=#ffffff;fillColor=#232F3E;dashed=0;verticalLabelPosition=middle;verticalAlign=bottom;align=center;html=1;whiteSpace=wrap;fontSize=10;fontStyle=1;spacing=3;shape=mxgraph.aws4.productIcon;prIcon=mxgraph.aws4.api_gateway;" vertex="1" parent="BmYQlpxGfJ4uTeWEvMpN-4">
          <mxGeometry x="380" y="10" width="80" height="70" as="geometry" />
        </mxCell>
        <mxCell id="BmYQlpxGfJ4uTeWEvMpN-14" value="" style="whiteSpace=wrap;html=1;aspect=fixed;dashed=1;" vertex="1" parent="1">
          <mxGeometry x="580" y="180" width="390" height="390" as="geometry" />
        </mxCell>
      </root>
    </mxGraphModel>
  </diagram>
</mxfile>
